<svg xmlns="http://www.w3.org/2000/svg" xmlns:xlink="http://www.w3.org/1999/xlink" width="250" height="250" viewBox="0 0 250 250">
  <defs>
    <clipPath id="clip-path">
      <rect id="Rectangle_3459" data-name="Rectangle 3459" width="250" height="250" fill="none"/>
    </clipPath>
    <clipPath id="clip-Artboard_23">
      <rect width="250" height="250"/>
    </clipPath>
  </defs>
  <g id="Artboard_23" data-name="Artboard – 23" clip-path="url(#clip-Artboard_23)">
    <g id="Group_5511" data-name="Group 5511">
      <g id="Group_5510" data-name="Group 5510" clip-path="url(#clip-path)">
        <path id="Path_8248" data-name="Path 8248" d="M249.966,83.877c-1.434,3.059-3.914,3.858-7.156,3.831-13.594-.115-27.19-.024-40.785-.08a4.023,4.023,0,0,0-3.632,1.8c-6.328,8.272-14.2,14.276-24.735,16.088a14.663,14.663,0,0,1-4.61.24c-2.927-.448-4.79.875-6.742,2.844q-22.7,22.9-45.554,45.634c-3.372,3.371-5.716,3.349-9.133-.068Q62.455,109.008,17.294,63.846c-3.785-3.784-3.788-5.607-.006-9.391Q43.1,28.631,68.926,2.817c3.78-3.78,5.721-3.759,9.57.089,4.548,4.548,9.136,9.056,13.6,13.682a2.9,2.9,0,0,0,3.613.777c8.165-2.959,16.252-6.217,24.59-8.591a36.046,36.046,0,0,1,25.945,2.3c10.9,5.258,21.565,11.013,32.273,16.661,5.138,2.709,9.162,4.006,14.052,4,.1-.489.244-1.009.308-1.539.354-2.887,1.894-4.364,4.829-4.411,3.744-.061,7.493-.117,11.233.015,1.977.07,2.559-.663,2.5-2.549-.043-1.422-.127-3.257.66-4.188a6.8,6.8,0,0,1,4.386-2.389c9.357-.214,18.722-.07,28.083-.132,2.809-.018,4.225,1.662,5.393,3.822ZM100.709,25.151c4.815,4.807,9.149,8.763,13.035,13.118a26.688,26.688,0,0,0,13.405,8.2c8.842,2.434,17.518,5.462,26.27,8.223,1.96.618,3.618,1.562,4.088,3.747.814,3.786-2.414,6.605-6.3,5.4-8.689-2.687-17.351-5.467-26.023-8.211C119.533,53.849,113.9,52,108.226,50.285a9.673,9.673,0,0,0-11.263,4.107,9.3,9.3,0,0,0,1.615,12.024,19.019,19.019,0,0,0,6.394,3.827c11.946,4.217,23.993,8.144,35.938,12.362a12.622,12.622,0,0,1,5,3.523,28.656,28.656,0,0,0,25.012,10.158c9.7-.8,16.169-6.968,21.411-14.606a3.87,3.87,0,0,0,.518-2.075c.031-12.051,0-24.1.046-36.154.005-1.522-.449-2.116-2.054-2.245a43.329,43.329,0,0,1-17.084-5.329c-10.389-5.554-20.825-11.035-31.393-16.241-5.1-2.512-10.812-3.768-16.378-2.326-8.294,2.148-16.395,5.045-25.277,7.842m19.13,60.184c-.41,1.167-.666,1.927-.945,2.68A27.8,27.8,0,0,1,87.8,105.628c-12.452-2.465-22.025-13.264-22.41-25.28-.45-14.052,7.519-25.111,20.555-28.72a5.628,5.628,0,0,0,2.917-2.173,19.866,19.866,0,0,1,11.537-8.47c.6-.168,1.188-.386,2.155-.7-3.459-3.45-6.642-6.692-9.936-9.815a2.268,2.268,0,0,0-2.065.046c-11.332,6.765-22.607,6.716-33.919-.052a2.2,2.2,0,0,0-2.048.093c-3.534,3.352-6.965,6.813-10.427,10.244,7.821,12.291,7.827,24.367-.252,37.073,1.332,1.1,2.878,2.181,4.194,3.493q22.149,22.07,44.238,44.2c.832.832,1.452,1.835,3.019.876,11.256-6.89,22.554-6.8,33.868-.038a2.194,2.194,0,0,0,2.044-.1c3.536-3.353,6.969-6.815,10.455-10.267-.678-1.129-1.248-2.013-1.753-2.933A30.652,30.652,0,0,1,136.1,93.841c.136-1.021-.113-2.876-.667-3.087-5.062-1.939-10.23-3.6-15.593-5.419M220.86,77.943h19.312V26.175H220.86ZM86.067,61.566c-1.094.541-1.979.9-2.777,1.388A18.244,18.244,0,1,0,110.1,84.659c.609-1.685.549-2.673-1.428-3.185-2.035-.527-3.983-1.38-5.994-2.013-8.729-2.748-14.611-8.191-16.612-17.9M211.4,78.014V41.128c0-6.136,0-6.041-6.187-6.152-2.3-.042-3.1.574-3.081,2.98.108,12.448.047,24.9.057,37.345,0,.874.1,1.748.164,2.712ZM74.091,11.748,62.929,22.91c4.782,4.362,17.174,4.19,21.739-.335-.246-.3-.473-.629-.75-.91-3.3-3.343-6.616-6.678-9.827-9.917M37.489,69.9c4.486-5.272,3.869-17.92-.112-21.443L26.629,59.177,37.489,69.9M112.6,145.069l11.275-10.621c-7.1-4.87-17.506-4.771-22.45-.44L112.6,145.069M145.82,98.924l-.9.274,3.08,9.551c2.272-1.991,4.118-3.609,6.08-5.33l-8.257-4.494" transform="translate(0.034 0)" fill="#0d4d99"/>
        <path id="Path_8249" data-name="Path 8249" d="M117.611,249.649c-2.3-.433-4.723-.552-6.885-1.36-5.687-2.126-11.41-4.254-16.849-6.93-7.65-3.766-14.971-8.2-22.606-12-3.585-1.784-7.562-2.792-11.392-4.057a9.657,9.657,0,0,0-2.555-.146c-1.17,5.5-2.051,6.192-7.6,6.194-2.93,0-5.865.1-8.789-.034-1.887-.086-2.75.491-2.51,2.455a11.319,11.319,0,0,1-.021,2.2,4.265,4.265,0,0,1-4.372,4.32q-14.771.1-29.542,0a4.442,4.442,0,0,1-4.415-4.1,14.524,14.524,0,0,1-.073-2.193q0-29.061,0-58.121c0-4.927,1.455-6.394,6.385-6.4,13.673-.009,27.346-.032,41.019.031a4.48,4.48,0,0,0,4.069-1.991c5.629-7.468,12.6-13.417,21.9-15.391,14.29-3.036,26.628,1.073,36.811,11.622a9.495,9.495,0,0,0,3.536,2.355c10.891,3.784,21.792,7.538,32.75,11.122,7.134,2.332,12.832,6.178,15.983,13.27a2.522,2.522,0,0,0,2.246.734q16.692-4.5,33.327-9.207a26.707,26.707,0,0,1,12.53-.963,18.851,18.851,0,0,1,11.014,30.469,24.991,24.991,0,0,1-11.165,8.01C186.1,228.246,161.8,237,137.45,245.595c-4.712,1.663-9.638,2.718-14.465,4.054ZM56.97,215.18a7.418,7.418,0,0,0,.92.375,11.377,11.377,0,0,0,1.68.309c7,.477,13.093,3.4,19.152,6.691C88,227.6,97.34,232.579,106.92,237c3.865,1.786,8.4,2.361,12.7,2.907,5.311.675,10.174-1.482,15.09-3.26,23.907-8.642,47.87-17.131,71.775-25.785a21.076,21.076,0,0,0,6.238-3.676c3.845-3.235,4.689-7.74,2.62-11.864a9.278,9.278,0,0,0-11.08-5c-13.278,3.454-26.489,7.165-39.7,10.876-.7.2-1.379,1.251-1.659,2.05-3.61,10.321-13.818,15.642-24.251,12.391-14.109-4.4-28.177-8.93-42.257-13.424-3.38-1.079-4.819-3.342-4.012-6.152.772-2.688,3.465-3.841,6.792-2.82,4.114,1.263,8.207,2.6,12.31,3.9,10.142,3.212,20.268,6.477,30.434,9.609a9.478,9.478,0,0,0,10.852-4.006c2.362-3.693,2.282-8.309-.924-11.471a21.183,21.183,0,0,0-7.5-4.7c-11.846-4.252-23.826-8.127-35.7-12.305a11.7,11.7,0,0,1-4.621-3.255c-7.615-8.636-17.161-11.987-28.291-9.781-7.518,1.49-12.954,6.591-17.283,12.733a8.347,8.347,0,0,0-1.423,4.458c-.115,11.4-.063,22.8-.063,34.2v2.555M9.731,178.772a14.428,14.428,0,0,0-.2,1.532c-.009,16.273.006,32.545-.037,48.817,0,1.507.536,1.985,1.984,1.97,5.044-.051,10.09-.1,15.131.023,2.087.05,2.617-.756,2.6-2.709-.079-8.379-.033-16.761-.033-25.141q0-11.106-.01-22.211c0-1.026.206-2.273-1.435-2.276-5.926-.008-11.851,0-18,0m37.932,43.114V185.353c0-6.7,0-6.616-6.668-6.644-2.09-.009-2.627.736-2.586,2.694.108,5.043.036,10.089.036,15.135q0,11.473.011,22.947c0,1.076-.325,2.426,1.52,2.407,2.426-.025,4.851-.006,7.687-.006" transform="translate(0 0.351)" fill="#0d4d99"/>
        <path id="Path_8250" data-name="Path 8250" d="M170.075,60.326a4.6,4.6,0,1,1,.08,9.2,4.6,4.6,0,1,1-.08-9.2" transform="translate(0.389 0.14)" fill="#0d4d99"/>
        <path id="Path_8251" data-name="Path 8251" d="M79.24,196.547a4.79,4.79,0,0,1-4.69-4.615,4.7,4.7,0,0,1,4.731-4.785,4.7,4.7,0,0,1-.041,9.4" transform="translate(0.175 0.434)" fill="#0d4d99"/>
      </g>
    </g>
  </g>
</svg>
